HIERARCHY
ROOT Hips
{
	OFFSET -3.958830 18.904000 13.208200
	CHANNELS 6 Xposition Yposition Zposition Zrotation Yrotation Xrotation 
	JOINT LHipJoint
	{
		OFFSET 0.000000 0.000000 0.000000
		CHANNELS 3 Zrotation Yrotation Xrotation
		JOINT LeftUpLeg
		{
			OFFSET 1.800000 -1.400000 0.085000
			CHANNELS 3 Zrotation Yrotation Xrotation
			JOINT LeftLeg
			{
				OFFSET 2.215000 -6.000000 0.000000
				CHANNELS 3 Zrotation Yrotation Xrotation
				JOINT LeftFoot
				{
					OFFSET 2.500000 -6.900000 0.000000
					CHANNELS 3 Zrotation Yrotation Xrotation
					JOINT LeftToeBase
					{
						OFFSET 0.200000 -0.500000 1.950000
						CHANNELS 3 Zrotation Yrotation Xrotation
						End Site
						{
							OFFSET 0.000000 0.000000 0.000000
						}
					}
				}
			}
		}
	}
	JOINT RHipJoint
	{
		OFFSET 0.000000 0.000000 0.000000
		CHANNELS 3 Zrotation Yrotation Xrotation
		JOINT RightUpLeg
		{
			OFFSET -1.800000 -1.400000 0.085000
			CHANNELS 3 Zrotation Yrotation Xrotation
			JOINT RightLeg
			{
				OFFSET -2.215000 -6.000000 0.000000
				CHANNELS 3 Zrotation Yrotation Xrotation
				JOINT RightFoot
				{
					OFFSET -2.500000 -6.900000 0.000000
					CHANNELS 3 Zrotation Yrotation Xrotation
					JOINT RightToeBase
					{
						OFFSET -0.200000 -0.500000 1.950000
						CHANNELS 3 Zrotation Yrotation Xrotation
						End Site
						{
							OFFSET 0.000000 0.000000 0.000000
						}
					}
				}
			}
		}
	}
	JOINT LowerBack
	{
		OFFSET 0.000000 0.000000 0.000000
		CHANNELS 3 Zrotation Yrotation Xrotation
		JOINT Spine
		{
			OFFSET -0.087000 1.940000 -0.288900
			CHANNELS 3 Zrotation Yrotation Xrotation
			JOINT Spine1
			{
				OFFSET 0.000000 1.950000 0.060000
				CHANNELS 3 Zrotation Yrotation Xrotation
				JOINT Neck
				{
					OFFSET 0.000000 0.000000 0.000000
					CHANNELS 3 Zrotation Yrotation Xrotation
					JOINT Neck1
					{
						OFFSET 0.000000 1.600000 0.340000
						CHANNELS 3 Zrotation Yrotation Xrotation
						JOINT Head
						{
							OFFSET 0.000000 1.667000 -0.240000
							CHANNELS 3 Zrotation Yrotation Xrotation
							End Site
							{
								OFFSET 0.000000 0.000000 0.000000
							}
						}
					}
				}
				JOINT LeftShoulder
				{
					OFFSET 0.000000 0.000000 0.000000
					CHANNELS 3 Zrotation Yrotation Xrotation
					JOINT LeftArm
					{
						OFFSET 2.700000 1.550000 -0.730000
						CHANNELS 3 Zrotation Yrotation Xrotation
						JOINT LeftForeArm
						{
							OFFSET 5.450000 0.000000 0.000000
							CHANNELS 3 Zrotation Yrotation Xrotation
							JOINT LeftHand
							{
								OFFSET 3.450000 0.000000 0.000000
								CHANNELS 3 Zrotation Yrotation Xrotation
								JOINT LeftHandIndex1
								{
									OFFSET 0.750000 0.000000 0.000000
									CHANNELS 3 Zrotation Yrotation Xrotation
									End Site
									{
										OFFSET 0.000000 0.000000 0.000000
									}
								}
							}
						}
					}
				}
				JOINT RightShoulder
				{
					OFFSET 0.000000 0.000000 0.000000
					CHANNELS 3 Zrotation Yrotation Xrotation
					JOINT RightArm
					{
						OFFSET -2.700000 1.550000 -0.730000
						CHANNELS 3 Zrotation Yrotation Xrotation
						JOINT RightForeArm
						{
							OFFSET -5.450000 0.000000 0.000000
							CHANNELS 3 Zrotation Yrotation Xrotation
							JOINT RightHand
							{
								OFFSET -3.450000 0.000000 0.000000
								CHANNELS 3 Zrotation Yrotation Xrotation
								JOINT RightHandIndex1
								{
									OFFSET -0.750000 0.000000 0.000000
									CHANNELS 3 Zrotation Yrotation Xrotation
									End Site
									{
										OFFSET 0.000000 0.000000 0.000000
									}
								}
							}
						}
					}
				}
			}
		}
	}
}
MOTION
Frames: 6
Frame Time: 0.016667
16.829330 16.462600 -0.460330 -2.927585 33.027715 0.815368 -15.461736 12.147333 3.969029 4.195406 -0.848708 -27.630593 -11.326996 3.737669 0.637528 -0.396810 2.381553 3.570956 0.120350 -0.071790 0.199960 17.486404 -12.275197 3.329809 -14.813733 2.910184 10.870312 7.298152 -7.493576 10.844007 -0.904859 -5.561948 2.407647 -0.244380 -0.136340 0.056770 -2.857129 2.283792 -8.796398 4.916599 14.919573 -1.536323 7.030584 15.371278 -15.772214 0.857755 -1.879322 -23.999869 -0.333192 -5.129687 77.454189 -4.909190 -5.627380 -0.140380 -11.141803 -8.146379 6.905776 -8.679778 27.191693 -1.617841 -0.955457 -21.110644 0.833373 -3.299199 2.784172 0.704240 -0.321950 0.307440 -0.019780 10.613006 19.348235 13.652240 27.178127 11.914090 3.496898 -10.710903 -6.971810 1.888624 3.117636 -0.798171 -0.058070 0.130870 0.085250 -0.087080 
16.960490 16.464820 -0.408160 -2.581477 34.452215 2.740690 -15.334686 11.873566 3.962908 2.176855 -1.586212 -27.707107 -10.377269 3.316260 0.080309 -0.481708 2.233181 3.695073 -0.011340 -0.231540 0.102050 17.634644 -12.447067 3.443228 -14.466439 3.103178 11.024720 6.973122 -7.339800 9.588482 -0.836477 -5.637350 2.421755 -0.289540 -0.005360 0.038460 -3.313747 3.017762 -8.796285 4.740550 14.798126 -3.052483 5.372747 14.724500 -15.204998 0.189109 -1.910472 -24.291660 0.671538 -5.572601 71.148961 -5.171110 -5.095650 0.985530 -8.256570 -8.436112 7.110454 -7.493804 25.607472 -1.018281 1.324409 -11.867259 -0.095955 -3.603914 2.443373 0.657510 -0.229690 0.188460 -0.036290 8.013975 20.139921 13.844483 26.006482 17.056319 5.406758 -10.023749 -10.940923 2.340974 3.194052 -0.751226 -0.147980 0.171980 0.172250 -0.090490 
17.112200 16.488680 -0.331850 -3.654915 34.225356 4.442900 -15.187192 11.761305 4.141544 2.034513 -1.950226 -27.964146 -10.211324 2.891699 -1.616293 -0.371456 2.132553 3.802640 -0.015530 -0.179270 0.034760 17.745014 -12.614572 3.458749 -13.583403 3.339474 9.429873 6.067415 -6.895091 10.123268 -0.717259 -5.497042 2.524597 -0.252290 0.088970 0.001880 -3.829019 3.500759 -8.863142 7.155993 16.205688 -3.810051 3.334822 15.683153 -18.428094 -0.676560 -3.320801 -22.975704 -2.065889 -4.355365 63.720864 -4.422760 -4.999070 1.733200 -2.527277 -3.228476 3.635963 -9.422186 17.503196 -1.833211 0.113386 -5.919549 -0.405581 -3.809409 2.233982 0.493600 -0.159590 0.092690 0.035530 2.733853 18.727489 14.993622 24.190072 16.408136 5.687036 -6.559409 -6.099119 1.221359 3.108908 -0.836602 -0.138160 0.163360 0.103820 -0.009260 
17.234190 16.503190 -0.320170 -4.384261 36.175780 5.289727 -15.174234 11.699784 4.147905 1.126693 -2.314589 -28.195357 -10.262830 2.562063 -3.095852 -0.392919 2.157131 3.789393 -0.060820 -0.251750 0.013780 17.857497 -12.358173 3.360166 -12.422456 3.012260 9.633123 6.403201 -6.963902 9.926531 -0.750735 -5.452830 2.534094 -0.308060 0.072800 0.044020 -3.991237 3.029965 -8.706921 8.249776 17.222376 -5.286447 1.871570 16.190432 -19.151208 0.766214 -2.526608 -22.283215 -3.615679 -5.432449 61.895915 -5.421000 -6.932370 -0.719300 -3.646953 -4.586051 4.505111 -6.583240 14.683778 -1.085953 2.588300 -0.011537 -0.569750 -3.988334 2.127244 0.544080 -0.176920 0.120790 -0.001000 1.837286 18.375179 14.222833 18.951819 13.282325 4.330270 -3.530313 -3.686730 0.963804 3.000918 -0.708001 -0.127760 0.161920 0.166080 -0.023350 
17.330280 16.514230 -0.275600 -3.855344 35.732270 6.753026 -15.147784 11.747128 4.305611 0.251786 -2.709253 -27.775254 -9.933386 2.298876 -4.047682 -0.482018 2.190257 3.827969 -0.027450 -0.198000 0.020270 17.816114 -12.406526 3.481192 -12.455896 3.415335 9.331696 6.513984 -6.772419 9.216585 -0.709861 -5.443781 2.541331 -0.208830 0.173260 0.039880 -4.037069 3.055820 -8.896846 8.982897 16.529358 -4.549335 0.716894 15.060785 -20.058278 0.844847 -4.025548 -22.004781 -4.729361 -3.182333 56.946852 -5.547460 -4.026040 -2.903820 1.681010 0.496112 0.845822 -10.376760 10.806105 -1.468018 7.431694 1.335442 -0.075600 -4.246804 1.996580 0.505960 -0.096320 0.056660 0.028450 -4.668361 18.976133 15.414044 19.818578 19.526150 6.859578 -3.576281 -1.043271 0.682003 2.871582 -0.789942 -0.194990 0.234630 0.170350 -0.029750 
17.445680 16.524190 -0.245400 -5.020742 32.933466 7.293795 -15.057145 11.882924 4.442939 0.688170 -2.203042 -26.715284 -9.858151 1.922743 -7.200790 -0.529064 2.480864 3.775539 -0.086130 -0.191700 -0.082220 17.860509 -12.275116 3.550066 -12.411037 4.035775 8.703976 6.167759 -6.383817 7.842774 -0.618585 -5.366438 2.594544 -0.128330 0.343680 0.045190 -4.273622 2.647275 -9.164564 12.456790 17.043831 -4.399292 -2.016501 15.311665 -19.556889 1.569607 -4.075589 -22.411468 -4.126162 -2.079273 51.247004 -5.889440 -2.334130 -3.737340 4.769913 4.775836 -3.298285 -10.335555 5.912177 0.619380 13.667276 20.515527 3.920924 -5.008056 1.611803 0.418300 0.053480 -0.040080 0.038230 -9.774780 20.827793 18.092086 18.392591 23.519388 8.566077 -0.827323 7.455945 0.785294 2.526409 -0.867793 -0.269350 0.338390 0.251280 -0.005260 
